<svg xmlns="http://www.w3.org/2000/svg" viewBox="0 0 100 100">
  <rect width="100" height="100" fill="#1a1a1a"/>

  <!-- Barcode stripes -->
  <rect x="15" y="25" width="3" height="40" fill="#ffffff"/>
  <rect x="20" y="25" width="2" height="40" fill="#ffffff"/>
  <rect x="24" y="25" width="5" height="40" fill="#ffffff"/>
  <rect x="31" y="25" width="2" height="40" fill="#ffffff"/>
  <rect x="35" y="25" width="4" height="40" fill="#ffffff"/>
  <rect x="41" y="25" width="3" height="40" fill="#ffffff"/>
  <rect x="46" y="25" width="2" height="40" fill="#ffffff"/>
  <rect x="50" y="25" width="6" height="40" fill="#ffffff"/>
  <rect x="58" y="25" width="2" height="40" fill="#ffffff"/>
  <rect x="62" y="25" width="4" height="40" fill="#ffffff"/>
  <rect x="68" y="25" width="3" height="40" fill="#ffffff"/>
  <rect x="73" y="25" width="2" height="40" fill="#ffffff"/>
  <rect x="77" y="25" width="5" height="40" fill="#ffffff"/>
  <rect x="84" y="25" width="2" height="40" fill="#ffffff"/>

  <!-- Scanner line (red laser effect) -->
  <rect x="10" y="43" width="80" height="2" fill="#ff0000" opacity="0.8"/>

  <!-- Camera icon corners -->
  <path d="M 15 70 L 15 75 L 20 75" stroke="#4CAF50" stroke-width="2" fill="none"/>
  <path d="M 85 70 L 85 75 L 80 75" stroke="#4CAF50" stroke-width="2" fill="none"/>
  <path d="M 15 85 L 15 80 L 20 80" stroke="#4CAF50" stroke-width="2" fill="none"/>
  <path d="M 85 85 L 85 80 L 80 80" stroke="#4CAF50" stroke-width="2" fill="none"/>
</svg>
